<svg version="1.1" viewBox="0.0 0.0 488.9501312335958 100.0" fill="none" stroke="none" stroke-linecap="square" stroke-miterlimit="10" xmlns:xlink="http://www.w3.org/1999/xlink" xmlns="http://www.w3.org/2000/svg"><clipPath id="p.0"><path d="m0 0l488.95013 0l0 100.0l-488.95013 0l0 -100.0z" clip-rule="nonzero"/></clipPath><g clip-path="url(#p.0)"><path fill="#000000" fill-opacity="0.0" d="m0 0l488.95013 0l0 100.0l-488.95013 0z" fill-rule="evenodd"/><g filter="url(#shadowFilter-p.1)"><use xlink:href="#p.1" transform="matrix(1.0 0.0 0.0 1.0 0.0 2.0)"/></g><defs><filter id="shadowFilter-p.1" filterUnits="userSpaceOnUse"><feGaussianBlur in="SourceAlpha" stdDeviation="2.0" result="blur"/><feComponentTransfer in="blur" color-interpolation-filters="sRGB"><feFuncR type="linear" slope="0" intercept="0.0"/><feFuncG type="linear" slope="0" intercept="0.0"/><feFuncB type="linear" slope="0" intercept="0.0"/><feFuncA type="linear" slope="0.5" intercept="0"/></feComponentTransfer></filter></defs><g id="p.1"><path fill="#d9ead3" d="m11.790049 10.558466l139.9055 0l0 69.76378l-139.9055 0z" fill-rule="evenodd"/><path fill="#000000" d="m34.136364 52.36035l0 -13.359375l1.59375 0l0 13.359375l-1.59375 0zm4.2209625 0l0 -9.515625l1.515625 0l0 1.40625l0.078125 0q0.359375 -0.703125 1.203125 -1.203125q0.859375 -0.5 1.875 -0.5q1.75 0 2.625 1.015625q0.890625 1.015625 0.890625 2.703125l0 6.09375l-1.578125 0l0 -5.859375q0 -1.375 -0.671875 -1.9375q-0.65625 -0.578125 -1.703125 -0.578125q-0.78125 0 -1.375 0.4375q-0.59375 0.4375 -0.9375 1.125q-0.328125 0.6875 -0.328125 1.453125l0 5.359375l-1.59375 0zm10.428848 0l0 -9.515625l1.59375 0l0 9.515625l-1.59375 0zm0.78125 -11.265625q-0.46875 0 -0.8125 -0.328125q-0.328125 -0.34375 -0.328125 -0.8125q0 -0.484375 0.328125 -0.8125q0.34375 -0.328125 0.8125 -0.328125q0.484375 0 0.8125 0.328125q0.328125 0.328125 0.328125 0.8125q0 0.46875 -0.328125 0.8125q-0.328125 0.328125 -0.8125 0.328125zm2.4304047 3.1875l0 -1.4375l1.765625 0l0 1.4375l-1.765625 0zm4.328125 8.234375q-1.203125 0 -1.9375 -0.71875q-0.71875 -0.71875 -0.71875 -1.9375l0 -9.703125l1.59375 0l0 9.3125q0 0.796875 0.3125 1.1875q0.328125 0.375 0.984375 0.375q0.296875 0 0.5625 -0.078125q0.265625 -0.09375 0.5 -0.234375l0 1.546875q-0.296875 0.109375 -0.609375 0.171875q-0.3125 0.078125 -0.6875 0.078125zm-1.15625 -8.234375l0 -1.4375l2.421875 0l0 1.4375l-2.421875 0zm4.3065033 8.078125l0 -9.515625l1.59375 0l0 9.515625l-1.59375 0zm0.78125 -11.265625q-0.46875 0 -0.8125 -0.328125q-0.328125 -0.34375 -0.328125 -0.8125q0 -0.484375 0.328125 -0.8125q0.34375 -0.328125 0.8125 -0.328125q0.484375 0 0.8125 0.328125q0.328125 0.328125 0.328125 0.8125q0 0.46875 -0.328125 0.8125q-0.328125 0.328125 -0.8125 0.328125zm6.1960335 11.5625q-1.0625 0 -1.875 -0.40625q-0.7968788 -0.40625 -1.2500038 -1.125q-0.453125 -0.71875 -0.453125 -1.640625q0 -1.046875 0.53125 -1.765625q0.546875 -0.71875 1.4531288 -1.078125q0.921875 -0.359375 2.03125 -0.359375q0.625 0 1.15625 0.109375q0.546875 0.09375 0.953125 0.234375q0.40625 0.140625 0.609375 0.265625l0 -0.578125q0 -1.078125 -0.765625 -1.703125q-0.765625 -0.640625 -1.875 -0.640625q-0.78125 0 -1.46875 0.34375q-0.671875 0.34375 -1.0625 0.953125l-1.1875038 -0.890625q0.375 -0.5625 0.9218788 -0.96875q0.5625 -0.40625 1.28125 -0.625q0.71875 -0.234375 1.515625 -0.234375q1.953125 0 3.046875 1.03125q1.109375 1.015625 1.109375 2.75l0 6.03125l-1.515625 0l0 -1.359375l-0.078125 0q-0.234375 0.40625 -0.6875 0.796875q-0.453125 0.375 -1.0625 0.609375q-0.59375 0.25 -1.328125 0.25zm0.15625 -1.390625q0.8125 0 1.484375 -0.40625q0.6875 -0.421875 1.09375 -1.109375q0.421875 -0.6875 0.421875 -1.515625q-0.4375 -0.296875 -1.078125 -0.484375q-0.640625 -0.1875 -1.40625 -0.1875q-1.359375 0 -2.0 0.5625q-0.625 0.5625 -0.625 1.375q0 0.78125 0.59375 1.28125q0.59375 0.484375 1.515625 0.484375zm6.6720886 1.09375l0 -13.359375l1.59375 0l0 13.359375l-1.59375 0zm3.899147 0l0 -9.515625l1.59375 0l0 9.515625l-1.59375 0zm0.78125 -11.265625q-0.46875 0 -0.8125 -0.328125q-0.328125 -0.34375 -0.328125 -0.8125q0 -0.484375 0.328125 -0.8125q0.34375 -0.328125 0.8125 -0.328125q0.484375 0 0.8125 0.328125q0.328125 0.328125 0.328125 0.8125q0 0.46875 -0.328125 0.8125q-0.328125 0.328125 -0.8125 0.328125zm2.7116547 11.265625l0 -1.359375l5.609375 -6.71875l-5.4375 0l0 -1.4375l7.375 0l0 1.359375l-5.609375 6.71875l5.765625 0l0 1.4375l-7.703125 0zm12.551315 0.296875q-1.0625 0 -1.875 -0.40625q-0.796875 -0.40625 -1.25 -1.125q-0.453125 -0.71875 -0.453125 -1.640625q0 -1.046875 0.53125 -1.765625q0.546875 -0.71875 1.453125 -1.078125q0.921875 -0.359375 2.03125 -0.359375q0.625 0 1.15625 0.109375q0.546875 0.09375 0.953125 0.234375q0.40625 0.140625 0.609375 0.265625l0 -0.578125q0 -1.078125 -0.765625 -1.703125q-0.765625 -0.640625 -1.875 -0.640625q-0.78125 0 -1.46875 0.34375q-0.671875 0.34375 -1.0625 0.953125l-1.1875 -0.890625q0.375 -0.5625 0.921875 -0.96875q0.5625 -0.40625 1.28125 -0.625q0.71875 -0.234375 1.515625 -0.234375q1.953125 0 3.046875 1.03125q1.109375 1.015625 1.109375 2.75l0 6.03125l-1.515625 0l0 -1.359375l-0.078125 0q-0.234375 0.40625 -0.6875 0.796875q-0.453125 0.375 -1.0625 0.609375q-0.59375 0.25 -1.328125 0.25zm0.15625 -1.390625q0.8125 0 1.484375 -0.40625q0.6875 -0.421875 1.09375 -1.109375q0.421875 -0.6875 0.421875 -1.515625q-0.4375 -0.296875 -1.078125 -0.484375q-0.640625 -0.1875 -1.40625 -0.1875q-1.359375 0 -2.0 0.5625q-0.625 0.5625 -0.625 1.375q0 0.78125 0.59375 1.28125q0.59375 0.484375 1.515625 0.484375zm5.70459 -6.984375l0 -1.4375l1.765625 0l0 1.4375l-1.765625 0zm4.328125 8.234375q-1.203125 0 -1.9375 -0.71875q-0.71875 -0.71875 -0.71875 -1.9375l0 -9.703125l1.59375 0l0 9.3125q0 0.796875 0.3125 1.1875q0.328125 0.375 0.984375 0.375q0.296875 0 0.5625 -0.078125q0.265625 -0.09375 0.5 -0.234375l0 1.546875q-0.296875 0.109375 -0.609375 0.171875q-0.3125 0.078125 -0.6875 0.078125zm-1.15625 -8.234375l0 -1.4375l2.421875 0l0 1.4375l-2.421875 0zm4.3065033 8.078125l0 -9.515625l1.59375 0l0 9.515625l-1.59375 0zm0.78125 -11.265625q-0.46875 0 -0.8125 -0.328125q-0.328125 -0.34375 -0.328125 -0.8125q0 -0.484375 0.328125 -0.8125q0.34375 -0.328125 0.8125 -0.328125q0.484375 0 0.8125 0.328125q0.328125 0.328125 0.328125 0.8125q0 0.46875 -0.328125 0.8125q-0.328125 0.328125 -0.8125 0.328125zm7.5085297 11.5625q-1.4375 0 -2.546875 -0.671875q-1.09375 -0.671875 -1.71875 -1.8125q-0.625 -1.15625 -0.625 -2.5625q0 -1.421875 0.625 -2.5625q0.625 -1.15625 1.71875 -1.828125q1.109375 -0.671875 2.546875 -0.671875q1.4375 0 2.53125 0.6875q1.09375 0.671875 1.71875 1.828125q0.625 1.140625 0.625 2.546875q0 1.40625 -0.625 2.5625q-0.625 1.140625 -1.71875 1.8125q-1.09375 0.671875 -2.53125 0.671875zm0 -1.4375q0.859375 0 1.609375 -0.421875q0.75 -0.4375 1.21875 -1.25q0.46875 -0.8125 0.46875 -1.9375q0 -1.140625 -0.46875 -1.953125q-0.46875 -0.8125 -1.21875 -1.234375q-0.75 -0.4375 -1.609375 -0.4375q-0.859375 0 -1.625 0.4375q-0.765625 0.421875 -1.234375 1.234375q-0.46875 0.8125 -0.46875 1.953125q0 1.125 0.46875 1.9375q0.46875 0.8125 1.234375 1.25q0.765625 0.421875 1.625 0.421875zm6.6911926 1.140625l0 -9.515625l1.515625 0l0 1.40625l0.078125 0q0.359375 -0.703125 1.203125 -1.203125q0.859375 -0.5 1.875 -0.5q1.75 0 2.6250076 1.015625q0.890625 1.015625 0.890625 2.703125l0 6.09375l-1.578125 0l0 -5.859375q0 -1.375 -0.6718826 -1.9375q-0.65625 -0.578125 -1.703125 -0.578125q-0.78125 0 -1.375 0.4375q-0.59375 0.4375 -0.9375 1.125q-0.328125 0.6875 -0.328125 1.453125l0 5.359375l-1.59375 0z" fill-rule="nonzero"/></g><g filter="url(#shadowFilter-p.2)"><use xlink:href="#p.2" transform="matrix(1.0 0.0 0.0 1.0 0.0 2.0)"/></g><defs><filter id="shadowFilter-p.2" filterUnits="userSpaceOnUse"><feGaussianBlur in="SourceAlpha" stdDeviation="2.0" result="blur"/><feComponentTransfer in="blur" color-interpolation-filters="sRGB"><feFuncR type="linear" slope="0" intercept="0.0"/><feFuncG type="linear" slope="0" intercept="0.0"/><feFuncB type="linear" slope="0" intercept="0.0"/><feFuncA type="linear" slope="0.5" intercept="0"/></feComponentTransfer></filter></defs><g id="p.2"><path fill="#cfe2f3" d="m174.28874 10.558466l139.9055 0l0 69.76378l-139.9055 0z" fill-rule="evenodd"/><path fill="#000000" d="m194.06406 52.657227q-1.484375 0 -2.75 -0.53125q-1.25 -0.53125 -2.203125 -1.46875q-0.9375 -0.953125 -1.453125 -2.21875q-0.515625 -1.28125 -0.515625 -2.75q0 -1.5 0.515625 -2.765625q0.515625 -1.265625 1.453125 -2.203125q0.953125 -0.953125 2.203125 -1.484375q1.265625 -0.53125 2.75 -0.53125q1.015625 0 1.90625 0.265625q0.890625 0.25 1.625 0.75q0.75 0.484375 1.34375 1.171875l-1.125 1.09375q-0.515625 -0.609375 -1.09375 -1.0q-0.5625 -0.390625 -1.21875 -0.578125q-0.65625 -0.1875 -1.4375 -0.1875q-1.4375 0 -2.65625 0.671875q-1.21875 0.671875 -1.953125 1.890625q-0.71875 1.21875 -0.71875 2.90625q0 1.65625 0.71875 2.890625q0.734375 1.21875 1.953125 1.890625q1.21875 0.671875 2.65625 0.671875q1.296875 0 2.3125 -0.53125q1.015625 -0.546875 1.796875 -1.453125l1.15625 1.109375q-0.578125 0.6875 -1.390625 1.234375q-0.796875 0.546875 -1.78125 0.859375q-0.984375 0.296875 -2.09375 0.296875zm11.527878 0q-1.4375 0 -2.546875 -0.671875q-1.09375 -0.671875 -1.71875 -1.8125q-0.625 -1.15625 -0.625 -2.5625q0 -1.421875 0.625 -2.5625q0.625 -1.15625 1.71875 -1.828125q1.109375 -0.671875 2.546875 -0.671875q1.4375 0 2.53125 0.6875q1.09375 0.671875 1.71875 1.828125q0.625 1.140625 0.625 2.546875q0 1.40625 -0.625 2.5625q-0.625 1.140625 -1.71875 1.8125q-1.09375 0.671875 -2.53125 0.671875zm0 -1.4375q0.859375 0 1.609375 -0.421875q0.75 -0.4375 1.21875 -1.25q0.46875 -0.8125 0.46875 -1.9375q0 -1.140625 -0.46875 -1.953125q-0.46875 -0.8125 -1.21875 -1.234375q-0.75 -0.4375 -1.609375 -0.4375q-0.859375 0 -1.625 0.4375q-0.765625 0.421875 -1.234375 1.234375q-0.46875 0.8125 -0.46875 1.953125q0 1.125 0.46875 1.9375q0.46875 0.8125 1.234375 1.25q0.765625 0.421875 1.625 0.421875zm6.6911926 1.140625l0 -9.515625l1.515625 0l0 1.40625l0.078125 0q0.359375 -0.703125 1.203125 -1.203125q0.859375 -0.5 1.875 -0.5q1.75 0 2.625 1.015625q0.890625 1.015625 0.890625 2.703125l0 6.09375l-1.578125 0l0 -5.859375q0 -1.375 -0.671875 -1.9375q-0.65625 -0.578125 -1.703125 -0.578125q-0.78125 0 -1.375 0.4375q-0.59375 0.4375 -0.9375 1.125q-0.328125 0.6875 -0.328125 1.453125l0 5.359375l-1.59375 0zm9.4613495 -8.078125l0 -1.4375l1.84375 0l0 1.4375l-1.84375 0zm1.75 8.078125l0 -10.546875q0 -0.875 0.375 -1.53125q0.390625 -0.671875 1.09375 -1.046875q0.703125 -0.375 1.625 -0.375q0.359375 0 0.6875 0.0625q0.34375 0.046875 0.65625 0.15625l0 1.546875q-0.375 -0.15625 -0.703125 -0.21875q-0.3125 -0.078125 -0.59375 -0.078125q-0.6875 0 -1.125 0.453125q-0.421875 0.4375 -0.421875 1.203125l0 10.375l-1.59375 0zm1.5 -8.078125l0 -1.4375l4.578125 0l0 1.4375l-4.578125 0zm4.453125 8.078125l0 -9.515625l1.59375 0l0 9.515625l-1.59375 0zm0.78125 -11.265625q-0.46875 0 -0.8125 -0.328125q-0.328125 -0.34375 -0.328125 -0.8125q0 -0.484375 0.328125 -0.8125q0.34375 -0.328125 0.8125 -0.328125q0.484375 0 0.8125 0.328125q0.328125 0.328125 0.328125 0.8125q0 0.46875 -0.328125 0.8125q-0.328125 0.328125 -0.8125 0.328125zm7.28891 15.59375q-1.203125 0 -2.078125 -0.40625q-0.859375 -0.390625 -1.390625 -1.015625q-0.53125 -0.609375 -0.765625 -1.25l1.46875 -0.609375q0.296875 0.78125 1.015625 1.3125q0.71875 0.53125 1.75 0.53125q1.5 0 2.296875 -0.875q0.8125 -0.859375 0.8125 -2.40625l0 -1.0625l-0.078125 0q-0.453125 0.6875 -1.296875 1.171875q-0.828125 0.46875 -1.953125 0.46875q-1.234375 0 -2.25 -0.625q-1.015625 -0.640625 -1.609375 -1.765625q-0.59375 -1.140625 -0.59375 -2.609375q0 -1.46875 0.59375 -2.59375q0.59375 -1.140625 1.609375 -1.765625q1.015625 -0.640625 2.25 -0.640625q1.125 0 1.953125 0.484375q0.84375 0.46875 1.296875 1.171875l0.078125 0l0 -1.359375l1.5 0l0 9.140625q0 1.59375 -0.609375 2.625q-0.59375 1.046875 -1.640625 1.5625q-1.03125 0.515625 -2.359375 0.515625zm0 -5.578125q0.84375 0 1.546875 -0.421875q0.71875 -0.421875 1.140625 -1.21875q0.421875 -0.796875 0.421875 -1.921875q0 -1.15625 -0.421875 -1.953125q-0.421875 -0.796875 -1.140625 -1.203125q-0.703125 -0.40625 -1.546875 -0.40625q-0.828125 0 -1.546875 0.421875q-0.703125 0.421875 -1.140625 1.21875q-0.421875 0.78125 -0.421875 1.921875q0 1.140625 0.421875 1.9375q0.4375 0.78125 1.140625 1.203125q0.71875 0.421875 1.546875 0.421875zm10.381714 1.546875q-1.75 0 -2.640625 -1.015625q-0.890625 -1.03125 -0.890625 -2.8125l0 -5.984375l1.59375 0l0 5.75q0 1.421875 0.640625 2.03125q0.65625 0.59375 1.625 0.59375q0.84375 0 1.453125 -0.4375q0.625 -0.4375 0.953125 -1.125q0.34375 -0.6875 0.34375 -1.4375l0 -5.375l1.578125 0l0 9.515625l-1.5 0l0 -1.375l-0.078125 0q-0.25 0.4375 -0.71875 0.828125q-0.46875 0.375 -1.078125 0.609375q-0.609375 0.234375 -1.28125 0.234375zm6.9757233 -0.296875l0 -9.515625l1.5156097 0l0 1.53125l0.078125 0q0.171875 -0.546875 0.609375 -0.9375q0.453125 -0.40625 1.015625 -0.640625q0.5625 -0.234375 1.125 -0.234375q0.4375 0 0.671875 0.046875q0.25 0.046875 0.453125 0.140625l0 1.71875q-0.296875 -0.15625 -0.640625 -0.21875q-0.34375 -0.078125 -0.703125 -0.078125q-0.6875 0 -1.265625 0.390625q-0.578125 0.390625 -0.921875 1.046875q-0.34375 0.65625 -0.34375 1.4375l0 5.3125l-1.5937347 0zm9.700943 0.296875q-1.0625 0 -1.875 -0.40625q-0.796875 -0.40625 -1.25 -1.125q-0.453125 -0.71875 -0.453125 -1.640625q0 -1.046875 0.53125 -1.765625q0.546875 -0.71875 1.453125 -1.078125q0.921875 -0.359375 2.03125 -0.359375q0.625 0 1.15625 0.109375q0.546875 0.09375 0.953125 0.234375q0.40625 0.140625 0.609375 0.265625l0 -0.578125q0 -1.078125 -0.765625 -1.703125q-0.765625 -0.640625 -1.875 -0.640625q-0.78125 0 -1.46875 0.34375q-0.671875 0.34375 -1.0625 0.953125l-1.1875 -0.890625q0.375 -0.5625 0.921875 -0.96875q0.5625 -0.40625 1.28125 -0.625q0.71875 -0.234375 1.515625 -0.234375q1.953125 0 3.046875 1.03125q1.109375 1.015625 1.109375 2.75l0 6.03125l-1.515625 0l0 -1.359375l-0.078125 0q-0.234375 0.40625 -0.6875 0.796875q-0.453125 0.375 -1.0625 0.609375q-0.59375 0.25 -1.328125 0.25zm0.15625 -1.390625q0.8125 0 1.484375 -0.40625q0.6875 -0.421875 1.09375 -1.109375q0.421875 -0.6875 0.421875 -1.515625q-0.4375 -0.296875 -1.078125 -0.484375q-0.640625 -0.1875 -1.40625 -0.1875q-1.359375 0 -2.0 0.5625q-0.625 0.5625 -0.625 1.375q0 0.78125 0.59375 1.28125q0.59375 0.484375 1.515625 0.484375zm5.70459 -6.984375l0 -1.4375l1.765625 0l0 1.4375l-1.765625 0zm4.328125 8.234375q-1.203125 0 -1.9375 -0.71875q-0.71875 -0.71875 -0.71875 -1.9375l0 -9.703125l1.59375 0l0 9.3125q0 0.796875 0.3125 1.1875q0.328125 0.375 0.984375 0.375q0.296875 0 0.5625 -0.078125q0.265625 -0.09375 0.5 -0.234375l0 1.546875q-0.296875 0.109375 -0.609375 0.171875q-0.3125 0.078125 -0.6875 0.078125zm-1.15625 -8.234375l0 -1.4375l2.421875 0l0 1.4375l-2.421875 0zm4.306488 8.078125l0 -9.515625l1.59375 0l0 9.515625l-1.59375 0zm0.78125 -11.265625q-0.46875 0 -0.8125 -0.328125q-0.328125 -0.34375 -0.328125 -0.8125q0 -0.484375 0.328125 -0.8125q0.34375 -0.328125 0.8125 -0.328125q0.484375 0 0.8125 0.328125q0.328125 0.328125 0.328125 0.8125q0 0.46875 -0.328125 0.8125q-0.328125 0.328125 -0.8125 0.328125zm7.508545 11.5625q-1.4375 0 -2.546875 -0.671875q-1.09375 -0.671875 -1.71875 -1.8125q-0.625 -1.15625 -0.625 -2.5625q0 -1.421875 0.625 -2.5625q0.625 -1.15625 1.71875 -1.828125q1.109375 -0.671875 2.546875 -0.671875q1.4375 0 2.53125 0.6875q1.09375 0.671875 1.71875 1.828125q0.625 1.140625 0.625 2.546875q0 1.40625 -0.625 2.5625q-0.625 1.140625 -1.71875 1.8125q-1.09375 0.671875 -2.53125 0.671875zm0 -1.4375q0.859375 0 1.609375 -0.421875q0.75 -0.4375 1.21875 -1.25q0.46875 -0.8125 0.46875 -1.9375q0 -1.140625 -0.46875 -1.953125q-0.46875 -0.8125 -1.21875 -1.234375q-0.75 -0.4375 -1.609375 -0.4375q-0.859375 0 -1.625 0.4375q-0.765625 0.421875 -1.234375 1.234375q-0.46875 0.8125 -0.46875 1.953125q0 1.125 0.46875 1.9375q0.46875 0.8125 1.234375 1.25q0.765625 0.421875 1.625 0.421875zm6.6911926 1.140625l0 -9.515625l1.515625 0l0 1.40625l0.078125 0q0.359375 -0.703125 1.203125 -1.203125q0.859375 -0.5 1.875 -0.5q1.75 0 2.625 1.015625q0.890625 1.015625 0.890625 2.703125l0 6.09375l-1.578125 0l0 -5.859375q0 -1.375 -0.671875 -1.9375q-0.65625 -0.578125 -1.703125 -0.578125q-0.78125 0 -1.375 0.4375q-0.59375 0.4375 -0.9375 1.125q-0.328125 0.6875 -0.328125 1.453125l0 5.359375l-1.59375 0z" fill-rule="nonzero"/></g><g filter="url(#shadowFilter-p.3)"><use xlink:href="#p.3" transform="matrix(1.0 0.0 0.0 1.0 0.0 2.0)"/></g><defs><filter id="shadowFilter-p.3" filterUnits="userSpaceOnUse"><feGaussianBlur in="SourceAlpha" stdDeviation="2.0" result="blur"/><feComponentTransfer in="blur" color-interpolation-filters="sRGB"><feFuncR type="linear" slope="0" intercept="0.0"/><feFuncG type="linear" slope="0" intercept="0.0"/><feFuncB type="linear" slope="0" intercept="0.0"/><feFuncA type="linear" slope="0.5" intercept="0"/></feComponentTransfer></filter></defs><g id="p.3"><path fill="#000000" fill-opacity="0.0" d="m151.69556 45.440357l22.582687 0" fill-rule="evenodd"/><path stroke="#000000" stroke-width="1.0" stroke-linejoin="round" stroke-linecap="butt" d="m151.69556 45.440357l16.582672 0" fill-rule="evenodd"/><path fill="#000000" stroke="#000000" stroke-width="1.0" stroke-linecap="butt" d="m168.27823 47.092087l4.538101 -1.6517296l-4.538101 -1.6517334z" fill-rule="evenodd"/></g><g filter="url(#shadowFilter-p.4)"><use xlink:href="#p.4" transform="matrix(1.0 0.0 0.0 1.0 0.0 2.0)"/></g><defs><filter id="shadowFilter-p.4" filterUnits="userSpaceOnUse"><feGaussianBlur in="SourceAlpha" stdDeviation="2.0" result="blur"/><feComponentTransfer in="blur" color-interpolation-filters="sRGB"><feFuncR type="linear" slope="0" intercept="0.0"/><feFuncG type="linear" slope="0" intercept="0.0"/><feFuncB type="linear" slope="0" intercept="0.0"/><feFuncA type="linear" slope="0.5" intercept="0"/></feComponentTransfer></filter></defs><g id="p.4"><path fill="#000000" fill-opacity="0.0" d="m314.19424 45.440357l22.582672 0" fill-rule="evenodd"/><path stroke="#000000" stroke-width="1.0" stroke-linejoin="round" stroke-linecap="butt" d="m314.19424 45.440357l16.582672 0" fill-rule="evenodd"/><path fill="#000000" stroke="#000000" stroke-width="1.0" stroke-linecap="butt" d="m330.77692 47.092087l4.5381165 -1.6517296l-4.5381165 -1.6517334z" fill-rule="evenodd"/></g><g filter="url(#shadowFilter-p.5)"><use xlink:href="#p.5" transform="matrix(1.0 0.0 0.0 1.0 0.0 2.0)"/></g><defs><filter id="shadowFilter-p.5" filterUnits="userSpaceOnUse"><feGaussianBlur in="SourceAlpha" stdDeviation="2.0" result="blur"/><feComponentTransfer in="blur" color-interpolation-filters="sRGB"><feFuncR type="linear" slope="0" intercept="0.0"/><feFuncG type="linear" slope="0" intercept="0.0"/><feFuncB type="linear" slope="0" intercept="0.0"/><feFuncA type="linear" slope="0.5" intercept="0"/></feComponentTransfer></filter></defs><g id="p.5"><path fill="#fff2cc" d="m336.78723 10.558466l139.90549 0l0 69.76378l-139.90549 0z" fill-rule="evenodd"/><path fill="#000000" d="m367.27698 52.36035l0 -13.359375l7.734375 0l0 1.515625l-6.140625 0l0 10.328125l6.140625 0l0 1.515625l-7.734375 0zm0.84375 -5.9375l0 -1.484375l6.28125 0l0 1.484375l-6.28125 0zm7.6658936 5.9375l3.8125 -5.46875l0.15625 0l2.71875 -4.046875l1.859375 0l-3.734375 5.25l-0.109375 0l-2.859375 4.265625l-1.84375 0zm0.078125 -9.515625l1.796875 0l2.9375 4.234375l0.078125 0l3.71875 5.28125l-1.859375 0l-2.828125 -4.21875l-0.125 0l-3.71875 -5.296875zm14.027527 9.8125q-1.375 0 -2.453125 -0.640625q-1.078125 -0.65625 -1.6875 -1.796875q-0.59375 -1.140625 -0.59375 -2.59375q0 -1.359375 0.5625 -2.515625q0.578125 -1.15625 1.609375 -1.859375q1.03125 -0.703125 2.4375 -0.703125q1.40625 0 2.421875 0.625q1.03125 0.625 1.578125 1.734375q0.546875 1.09375 0.546875 2.515625q0 0.125 -0.015625 0.265625q0 0.125 -0.015625 0.21875l-8.203125 0l0 -1.3125l6.5625 0q-0.03125 -0.390625 -0.1875 -0.84375q-0.15625 -0.46875 -0.5 -0.859375q-0.34375 -0.40625 -0.875 -0.65625q-0.53125 -0.25 -1.3125 -0.25q-0.9375 0 -1.625 0.484375q-0.671875 0.46875 -1.046875 1.296875q-0.359375 0.8125 -0.359375 1.859375q0 1.203125 0.46875 2.015625q0.46875 0.796875 1.203125 1.1875q0.734375 0.390625 1.546875 0.390625q1.046875 0 1.71875 -0.484375q0.6875 -0.5 1.09375 -1.234375l1.34375 0.65625q-0.5625 1.078125 -1.609375 1.796875q-1.046875 0.703125 -2.609375 0.703125zm10.544281 0q-1.40625 0 -2.5 -0.65625q-1.078125 -0.671875 -1.703125 -1.8125q-0.609375 -1.15625 -0.609375 -2.578125q0 -1.46875 0.609375 -2.59375q0.625 -1.140625 1.703125 -1.796875q1.09375 -0.671875 2.5 -0.671875q1.609375 0 2.640625 0.734375q1.03125 0.734375 1.46875 1.890625l-1.4375 0.609375q-0.359375 -0.890625 -1.0625 -1.34375q-0.703125 -0.453125 -1.6875 -0.453125q-0.84375 0 -1.5625 0.453125q-0.71875 0.4375 -1.171875 1.25q-0.4375 0.8125 -0.4375 1.921875q0 1.078125 0.4375 1.90625q0.453125 0.8125 1.171875 1.265625q0.71875 0.4375 1.5625 0.4375q1.015625 0 1.734375 -0.46875q0.734375 -0.46875 1.078125 -1.3125l1.421875 0.59375q-0.46875 1.09375 -1.515625 1.859375q-1.03125 0.765625 -2.640625 0.765625zm9.214996 0q-1.75 0 -2.640625 -1.015625q-0.890625 -1.03125 -0.890625 -2.8125l0 -5.984375l1.59375 0l0 5.75q0 1.421875 0.640625 2.03125q0.65625 0.59375 1.625 0.59375q0.84375 0 1.453125 -0.4375q0.625 -0.4375 0.953125 -1.125q0.34375 -0.6875 0.34375 -1.4375l0 -5.375l1.578125 0l0 9.515625l-1.5 0l0 -1.375l-0.078125 0q-0.25 0.4375 -0.71875 0.828125q-0.46875 0.375 -1.078125 0.609375q-0.609375 0.234375 -1.28125 0.234375zm6.288208 -8.375l0 -1.4375l1.765625 0l0 1.4375l-1.765625 0zm4.328125 8.234375q-1.203125 0 -1.9375 -0.71875q-0.71875 -0.71875 -0.71875 -1.9375l0 -9.703125l1.59375 0l0 9.3125q0 0.796875 0.3125 1.1875q0.328125 0.375 0.984375 0.375q0.296875 0 0.5625 -0.078125q0.265625 -0.09375 0.5 -0.234375l0 1.546875q-0.296875 0.109375 -0.609375 0.171875q-0.3125 0.078125 -0.6875 0.078125zm-1.15625 -8.234375l0 -1.4375l2.421875 0l0 1.4375l-2.421875 0zm4.3065186 8.078125l0 -9.515625l1.59375 0l0 9.515625l-1.59375 0zm0.78125 -11.265625q-0.46875 0 -0.8125 -0.328125q-0.328125 -0.34375 -0.328125 -0.8125q0 -0.484375 0.328125 -0.8125q0.34375 -0.328125 0.8125 -0.328125q0.484375 0 0.8125 0.328125q0.328125 0.328125 0.328125 0.8125q0 0.46875 -0.328125 0.8125q-0.328125 0.328125 -0.8125 0.328125zm7.5085144 11.5625q-1.4375 0 -2.546875 -0.671875q-1.09375 -0.671875 -1.71875 -1.8125q-0.625 -1.15625 -0.625 -2.5625q0 -1.421875 0.625 -2.5625q0.625 -1.15625 1.71875 -1.828125q1.109375 -0.671875 2.546875 -0.671875q1.4375 0 2.53125 0.6875q1.09375 0.671875 1.71875 1.828125q0.625 1.140625 0.625 2.546875q0 1.40625 -0.625 2.5625q-0.625 1.140625 -1.71875 1.8125q-1.09375 0.671875 -2.53125 0.671875zm0 -1.4375q0.859375 0 1.609375 -0.421875q0.75 -0.4375 1.21875 -1.25q0.46875 -0.8125 0.46875 -1.9375q0 -1.140625 -0.46875 -1.953125q-0.46875 -0.8125 -1.21875 -1.234375q-0.75 -0.4375 -1.609375 -0.4375q-0.859375 0 -1.625 0.4375q-0.765625 0.421875 -1.234375 1.234375q-0.46875 0.8125 -0.46875 1.953125q0 1.125 0.46875 1.9375q0.46875 0.8125 1.234375 1.25q0.765625 0.421875 1.625 0.421875zm6.6911926 1.140625l0 -9.515625l1.515625 0l0 1.40625l0.078125 0q0.359375 -0.703125 1.203125 -1.203125q0.859375 -0.5 1.875 -0.5q1.75 0 2.625 1.015625q0.890625 1.015625 0.890625 2.703125l0 6.09375l-1.578125 0l0 -5.859375q0 -1.375 -0.671875 -1.9375q-0.65625 -0.578125 -1.703125 -0.578125q-0.78125 0 -1.375 0.4375q-0.59375 0.4375 -0.9375 1.125q-0.328125 0.6875 -0.328125 1.453125l0 5.359375l-1.59375 0z" fill-rule="nonzero"/></g></g></svg>